<svg xmlns="http://www.w3.org/2000/svg" width="1em" height="1em" viewBox="0 0 256 256"><g fill="none" stroke="#c4c4c4" stroke-linecap="round"><path stroke-width="15.99" d="M 32,48 V 207.9236"/><path stroke-linejoin="round" stroke-width="15.99" d="M 224,96 V 208"/><path stroke-linejoin="round" stroke-width="15.99" d="m 64,16 h 80"/><path stroke-width="15.99" d="M 64,240 H 192"/><path stroke-linejoin="round" stroke-width="15.99" d="m 224,208 c 0.0874,15.98169 -16,32 -32,32"/><path stroke-linejoin="round" stroke-width="15.99" d="m -32,208 c -10e-7,16 -16,32 -32,32" transform="scale(-1 1)"/><path stroke-linejoin="round" stroke-width="15.99" d="M -32,-47.976784 C -32,-32 -48,-16.356322 -63.999997,-16.000002" transform="scale(-1)"/><path stroke-linejoin="round" stroke-width="15.99" d="M 223.91257,96.071779 144,16"/><path stroke-linejoin="round" stroke-width="15.99" d="m -144,64 c -0.0492,15.912926 -16.06452,31.999995 -32,32" transform="scale(-1 1)"/><path stroke-linejoin="round" stroke-width="15.99" d="M 144,64 V 16"/><path stroke-linejoin="round" stroke-width="15.99" d="m 176,96 h 48"/><path stroke-linejoin="round" stroke-width="16" d="m 64,208 48,-64"/><path stroke-linejoin="round" stroke-width="16" d="m 64,144 48,64"/></g></svg>