<svg xmlns="http://www.w3.org/2000/svg" width="1em" height="1em" viewBox="0 0 24 24"><path fill="#aaa" d="M12 19H4.616q-.691 0-1.153-.462T3 17.384V6.616q0-.691.463-1.153T4.615 5h14.77q.69 0 1.152.463T21 6.616V11h-1V6.616q0-.27-.173-.443T19.385 6H4.615q-.269 0-.442.173T4 6.616v10.769q0 .269.173.442t.443.173H12zm-2-3.423V8.423L15.577 12zm7.85 5.23l-.108-.865q-.569-.125-.937-.349t-.701-.558l-.796.353l-.577-.854l.708-.576q-.185-.542-.185-1.035t.185-1.034l-.708-.577l.577-.854l.796.354q.333-.335.7-.559q.369-.224.938-.35l.108-.864h1l.108.865q.569.125.937.352t.701.567l.796-.365l.577.865l-.707.577q.184.53.184 1.029t-.184 1.029l.707.577l-.577.854l-.796-.354q-.332.334-.7.558t-.938.35l-.108.865zm.5-1.73q.883 0 1.518-.636q.636-.635.636-1.518t-.636-1.518t-1.518-.636t-1.518.636q-.636.635-.636 1.518t.636 1.518t1.518.636"/></svg>