<?xml version="1.0" encoding="utf-8"?>
<svg viewBox="135.134 168.0081 37.6545 39.907" xmlns="http://www.w3.org/2000/svg">
  <defs>
    <linearGradient x1="82.7229292%" y1="-47.3322141%" x2="34.063775%" y2="81.9802728%" id="linearGradient-1">
      <stop stop-color="#E45D99" offset="0"/>
      <stop stop-color="#4E6EB5" offset="1"/>
    </linearGradient>
    <linearGradient x1="500.655914%" y1="-380.065438%" x2="28.9188172%" y2="85.25956%" id="linearGradient-2">
      <stop stop-color="#E77EAB" offset="0"/>
      <stop stop-color="#4E6EB5" offset="1"/>
    </linearGradient>
    <linearGradient x1="86.2349173%" y1="-23.7924641%" x2="-5.45821284%" y2="123.617584%" id="linearGradient-3">
      <stop stop-color="#E45D99" offset="0"/>
      <stop stop-color="#4E6EB5" offset="1"/>
    </linearGradient>
    <linearGradient x1="120.860176%" y1="-43.7265497%" x2="33.0738932%" y2="100.407719%" id="linearGradient-4">
      <stop stop-color="#E77EAB" offset="0"/>
      <stop stop-color="#4E6EB5" offset="1"/>
    </linearGradient>
  </defs>
  <path d="M13.2528926,26.4186047 C10.8661157,27.0077519 0.219834711,29.4573643 9.41469125e-14,29.5503876 L9.41469125e-14,-3.55271368e-15 L15.4198347,4.68217054 L14.6347107,4.93023256 L13.2214876,5.36434109 L13.2214876,26.4186047 L13.2528926,26.4186047 Z" id="路径" fill="url(#linearGradient-1)" transform="matrix(1, 0, 0, 1, 135.13404846191406, 168.00810241699216)"/>
  <path d="M8.44793388,34.9147287 C10.0181818,34.2325581 11.6198347,33.6124031 13.2528926,32.9922481 L13.2528926,37.1472868 L7.41157025,35.3488372 C7.75702479,35.1937984 8.10247934,35.0697674 8.44793388,34.9147287 Z" id="路径" fill="url(#linearGradient-2)" transform="matrix(1, 0, 0, 1, 135.13404846191406, 168.00810241699216)"/>
  <path d="M37.6545455,1.77635684e-15 L37.6545455,11.1627907 C35.4876033,11.7209302 33.2892562,12.3100775 31.122314,12.9922481 C29.4264463,13.5193798 27.7619835,14.1085271 26.0661157,14.8527132 C25.2181818,15.2248062 24.3702479,15.627907 23.522314,16.1860465 C23.1454545,16.4341085 22.8,16.6821705 22.4231405,17.0542636 C22.3603306,17.1162791 22.2661157,17.2093023 22.2033058,17.2713178 C21.9834711,17.5193798 21.7322314,17.8294574 21.5438017,18.2635659 C21.4495868,18.4806202 21.3553719,18.7286822 21.3239669,19.0077519 C21.292562,19.2868217 21.292562,19.5968992 21.3239669,19.9069767 C21.3867769,20.2170543 21.4809917,20.496124 21.6066116,20.744186 C21.7322314,20.9922481 21.8892562,21.1782946 22.046281,21.3643411 C22.1719008,21.5193798 22.2975207,21.6434109 22.4231405,21.7364341 C22.5801653,21.8914729 22.768595,22.0155039 22.9256198,22.1085271 C23.4595041,22.4806202 23.9619835,22.6976744 24.4644628,22.9147287 C24.7157025,23.0077519 24.9669421,23.1007752 25.2495868,23.1937984 C24.7785124,23.3488372 24.307438,23.503876 23.8049587,23.6589147 C23.3652893,23.7829457 22.9256198,23.9379845 22.4545455,24.0620155 C22.1090909,24.1550388 21.7322314,24.2790698 21.3553719,24.372093 C19.722314,24.8062016 18.0264463,25.2403101 16.3305785,25.6744186 C15.985124,25.7674419 15.6396694,25.8604651 15.2942149,25.9224806 L15.2942149,6.82170543 L18.8743802,5.73643411 L37.6545455,1.77635684e-15 Z" id="路径" fill="url(#linearGradient-3)" transform="matrix(1, 0, 0, 1, 135.13404846191406, 168.00810241699216)"/>
  <path d="M37.6545455,13.3953488 L37.6545455,33.1162791 L22.4231405,37.7364341 L18.8429752,38.8217054 L15.2628099,39.9069767 L15.2628099,32.2170543 C16.2049587,31.875969 17.1157025,31.5348837 18.0578512,31.1937984 C19.5024793,30.6666667 20.9471074,30.1395349 22.3917355,29.5503876 C22.5801653,29.4883721 22.8,29.3953488 22.9884298,29.3023256 C23.8049587,28.9612403 24.6528926,28.6511628 25.5008264,28.2790698 C26.3487603,27.9069767 27.1966942,27.5348837 28.0446281,27.0697674 C28.4842975,26.8217054 28.9239669,26.5736434 29.3950413,26.2635659 C29.646281,26.1085271 29.8975207,25.9224806 30.1487603,25.6744186 C30.2743802,25.5503876 30.431405,25.4263566 30.5884298,25.2403101 C30.7454545,25.0542636 30.9024793,24.8682171 31.0595041,24.5891473 C31.2165289,24.3100775 31.3735537,23.9379845 31.4049587,23.4728682 C31.4677686,23.0077519 31.3735537,22.4806202 31.185124,22.0775194 C30.9966942,21.6744186 30.7768595,21.3953488 30.5570248,21.1782946 C30.3371901,20.9612403 30.1487603,20.8372093 29.9917355,20.7131783 C29.646281,20.496124 29.3322314,20.3410853 29.0495868,20.2170543 C28.7669421,20.0930233 28.5157025,20 28.2330579,19.9379845 C27.9818182,19.875969 27.7305785,19.7829457 27.4793388,19.751938 L27.1024793,19.6589147 L26.7884298,19.5968992 C26.4115702,19.503876 26.0347107,19.4418605 25.6892562,19.3178295 C25.5008264,19.255814 25.3438017,19.1937984 25.1867769,19.1317829 C25.2809917,19.0697674 25.3438017,18.9767442 25.4380165,18.9147287 C26.0033058,18.4806202 26.6942149,18.0465116 27.4165289,17.6434109 C28.861157,16.8682171 30.431405,16.1550388 32.0016529,15.503876 C33.8859504,14.7596899 35.7702479,14.0775194 37.6545455,13.3953488 Z" id="路径" fill="url(#linearGradient-4)" transform="matrix(1, 0, 0, 1, 135.13404846191406, 168.00810241699216)"/>
</svg>